{
  "accessors": [
    {
      "bufferView": 2,
      "componentType": 5126,
      "count": 5246,
      "max": [
        1.624959945678711,
        4.969240188598633,
        1.2211500406265259
      ],
      "min": [
        -1.5992100238800049,
        -3.1986799240112305,
        -1.1923799514770508
      ],
      "type": "VEC3"
    },
    {
      "bufferView": 2,
      "byteOffset": 62952,
      "componentType": 5126,
      "count": 5246,
      "max": [
        0.9999693632125854,
        0.9983274936676025,
        0.9999063611030579
      ],
      "min": [
        -0.9999405145645142,
        -0.9993146061897278,
        -1.0
      ],
      "type": "VEC3"
    },
    {
      "bufferView": 3,
      "componentType": 5126,
      "count": 5246,
      "max": [
        0.972882866859436,
        0.6023394465446472,
        0.6903743743896484,
        1.0
      ],
      "min": [
        -0.9545097351074219,
        -0.9999985098838806,
        -0.9996691942214966,
        -1.0
      ],
      "type": "VEC4"
    },
    {
      "bufferView": 1,
      "componentType": 5126,
      "count": 5246,
      "max": [
        0.9670199751853943,
        0.9980400204658508
      ],
      "min": [
        0.0019499999471008778,
        0.0019499999471008778
      ],
      "type": "VEC2"
    },
    {
      "bufferView": 0,
      "componentType": 5125,
      "count": 30414,
      "type": "SCALAR"
    }
  ],
  "asset": {
    "extras": {
      "author": "pixol3d (https://sketchfab.com/pixol3d)",
      "license": "CC-BY-4.0 (http://creativecommons.org/licenses/by/4.0/)",
      "source": "https://sketchfab.com/3d-models/grotto-cavern-cave-aa059550ba7543b9b5eb37d7fc19363d",
      "title": "Grotto Cavern Cave"
    },
    "generator": "Sketchfab-13.74.0",
    "version": "2.0"
  },
  "bufferViews": [
    {
      "buffer": 0,
      "byteLength": 121656,
      "name": "floatBufferViews",
      "target": 34963
    },
    {
      "buffer": 0,
      "byteLength": 41968,
      "byteOffset": 121656,
      "byteStride": 8,
      "name": "floatBufferViews",
      "target": 34962
    },
    {
      "buffer": 0,
      "byteLength": 125904,
      "byteOffset": 163624,
      "byteStride": 12,
      "name": "floatBufferViews",
      "target": 34962
    },
    {
      "buffer": 0,
      "byteLength": 83936,
      "byteOffset": 289528,
      "byteStride": 16,
      "name": "floatBufferViews",
      "target": 34962
    }
  ],
  "buffers": [
    {
      "byteLength": 373464,
      "uri": "scene.bin"
    }
  ],
  "images": [
    {
      "uri": "textures/defaultMat_baseColor.png"
    },
    {
      "uri": "textures/defaultMat_metallicRoughness.png"
    },
    {
      "uri": "textures/defaultMat_normal.png"
    }
  ],
  "materials": [
    {
      "doubleSided": true,
      "name": "defaultMat",
      "normalTexture": {
        "index": 2
      },
      "pbrMetallicRoughness": {
        "baseColorTexture": {
          "index": 0
        },
        "metallicFactor": 0.0,
        "metallicRoughnessTexture": {
          "index": 1
        }
      }
    }
  ],
  "meshes": [
    {
      "name": "Object_0",
      "primitives": [
        {
          "attributes": {
            "NORMAL": 1,
            "POSITION": 0,
            "TANGENT": 2,
            "TEXCOORD_0": 3
          },
          "indices": 4,
          "material": 0,
          "mode": 4
        }
      ]
    }
  ],
  "nodes": [
    {
      "children": [
        1
      ],
      "matrix": [
        1.4394522905349731,
        0.0,
        0.0,
        0.0,
        0.0,
        3.196226151602695e-16,
        -1.4394522905349731,
        0.0,
        0.0,
        1.4394522905349731,
        3.196226151602695e-16,
        0.0,
        0.0,
        0.0,
        0.0,
        1.0
      ],
      "name": "Sketchfab_model"
    },
    {
      "children": [
        2
      ],
      "name": "GRUTA_BASE.OBJ.cleaner.materialmerger.gles"
    },
    {
      "mesh": 0,
      "name": "Object_2"
    }
  ],
  "samplers": [
    {
      "magFilter": 9729,
      "minFilter": 9987,
      "wrapS": 10497,
      "wrapT": 10497
    }
  ],
  "scene": 0,
  "scenes": [
    {
      "name": "Sketchfab_Scene",
      "nodes": [
        0
      ]
    }
  ],
  "textures": [
    {
      "sampler": 0,
      "source": 0
    },
    {
      "sampler": 0,
      "source": 1
    },
    {
      "sampler": 0,
      "source": 2
    }
  ]
}
