{
  "accessors": [
    {
      "bufferView": 2,
      "componentType": 5126,
      "count": 1722,
      "max": [
        454.59234619140625,
        756.1928100585938,
        491.1574401855469
      ],
      "min": [
        -496.6200866699219,
        -6.580669403076172,
        -460.79376220703125
      ],
      "type": "VEC3"
    },
    {
      "bufferView": 2,
      "byteOffset": 20664,
      "componentType": 5126,
      "count": 1722,
      "max": [
        0.9999443888664246,
        0.9999608397483826,
        0.9997773766517639
      ],
      "min": [
        -0.9999444484710693,
        -0.8466286659240723,
        -0.9997102618217468
      ],
      "type": "VEC3"
    },
    {
      "bufferView": 3,
      "componentType": 5126,
      "count": 1722,
      "max": [
        0.9999997615814209,
        0.8333870768547058,
        0.9995614886283875,
        1.0
      ],
      "min": [
        -0.9999988675117493,
        -0.6979281306266785,
        -0.9989570379257202,
        1.0
      ],
      "type": "VEC4"
    },
    {
      "bufferView": 1,
      "componentType": 5126,
      "count": 1722,
      "max": [
        0.9966778755187988,
        0.9983323216438293
      ],
      "min": [
        0.006361573934555054,
        0.002666279673576355
      ],
      "type": "VEC2"
    },
    {
      "bufferView": 0,
      "componentType": 5125,
      "count": 5121,
      "type": "SCALAR"
    }
  ],
  "asset": {
    "extras": {
      "author": "DJMiddi (https://sketchfab.com/DJMiddi)",
      "license": "CC-BY-4.0 (http://creativecommons.org/licenses/by/4.0/)",
      "source": "https://sketchfab.com/3d-models/alocasia-macrorrhizos-09127a0699ea4d1c9246227e19ab452b",
      "title": "Alocasia macrorrhizos"
    },
    "generator": "Sketchfab-12.65.0",
    "version": "2.0"
  },
  "bufferViews": [
    {
      "buffer": 0,
      "byteLength": 20484,
      "name": "floatBufferViews",
      "target": 34963
    },
    {
      "buffer": 0,
      "byteLength": 13776,
      "byteOffset": 20484,
      "byteStride": 8,
      "name": "floatBufferViews",
      "target": 34962
    },
    {
      "buffer": 0,
      "byteLength": 41328,
      "byteOffset": 34260,
      "byteStride": 12,
      "name": "floatBufferViews",
      "target": 34962
    },
    {
      "buffer": 0,
      "byteLength": 27552,
      "byteOffset": 75588,
      "byteStride": 16,
      "name": "floatBufferViews",
      "target": 34962
    }
  ],
  "buffers": [
    {
      "byteLength": 103140,
      "uri": "scene.bin"
    }
  ],
  "images": [
    {
      "uri": "textures/lambert1_baseColor.png"
    },
    {
      "uri": "textures/lambert1_metallicRoughness.png"
    },
    {
      "uri": "textures/lambert1_normal.png"
    }
  ],
  "materials": [
    {
      "doubleSided": true,
      "name": "lambert1",
      "normalTexture": {
        "index": 2
      },
      "pbrMetallicRoughness": {
        "baseColorTexture": {
          "index": 0
        },
        "metallicFactor": 0.0,
        "metallicRoughnessTexture": {
          "index": 1
        },
        "roughnessFactor": 0.5124445944220491
      }
    }
  ],
  "meshes": [
    {
      "name": "alocasia_macrorrhizos_lambert1_0",
      "primitives": [
        {
          "attributes": {
            "NORMAL": 1,
            "POSITION": 0,
            "TANGENT": 2,
            "TEXCOORD_0": 3
          },
          "indices": 4,
          "material": 0,
          "mode": 4
        }
      ]
    }
  ],
  "nodes": [
    {
      "children": [
        1
      ],
      "matrix": [
        1.0,
        0.0,
        0.0,
        0.0,
        0.0,
        2.220446049250313e-16,
        -1.0,
        0.0,
        0.0,
        1.0,
        2.220446049250313e-16,
        0.0,
        0.0,
        0.0,
        0.0,
        1.0
      ],
      "name": "Sketchfab_model"
    },
    {
      "children": [
        2
      ],
      "matrix": [
        0.009999999776482582,
        0.0,
        0.0,
        0.0,
        0.0,
        0.0,
        0.009999999776482582,
        0.0,
        0.0,
        -0.009999999776482582,
        0.0,
        0.0,
        0.0,
        0.0,
        0.0,
        1.0
      ],
      "name": "43635e16dd134906ba17d9bfe42ddcdf.fbx"
    },
    {
      "children": [
        3
      ],
      "name": "RootNode"
    },
    {
      "children": [
        4
      ],
      "name": "alocasia_macrorrhizos"
    },
    {
      "mesh": 0,
      "name": "alocasia_macrorrhizos_lambert1_0"
    }
  ],
  "samplers": [
    {
      "magFilter": 9729,
      "minFilter": 9987,
      "wrapS": 10497,
      "wrapT": 10497
    }
  ],
  "scene": 0,
  "scenes": [
    {
      "name": "Sketchfab_Scene",
      "nodes": [
        0
      ]
    }
  ],
  "textures": [
    {
      "sampler": 0,
      "source": 0
    },
    {
      "sampler": 0,
      "source": 1
    },
    {
      "sampler": 0,
      "source": 2
    }
  ]
}
